# xmcd CD database file
#
# Track frame offsets:
#	183
#	12883
#	23683
#	33608
#	46083
#	54508
#	62108
#	71433
#	82683
#	92358
#	103533
#	113533
#	124408
#	134383
#	145133
#	155158
#	167258
#
# Disc length: 2337 seconds
#
# Revision: 0
# Processed by: cddbd v1.4PL0 Copyright (c) Steve Scherf et al.
# Submitted via: CDex 1.40Beta8
#
DISCID=d0091f11
DTITLE=Johnny Cash - Country Star Collection CD1
DYEAR=1900
DGENRE=Country
TTITLE0=Folsom prison blues
TTITLE1=Fools hall of fame
TTITLE2=Get rhythm
TTITLE3=Geive me love to Rose
TTITLE4=Country boy
TTITLE5=Come in stranger
TTITLE6=Luther's boogie
TTITLE7=Mean eyed cat
TTITLE8=New Mexico
TTITLE9=On lonesome me
TTITLE10=Hey Porter
TTITLE11=Cry, cry, cry
TTITLE12=Ballad of a teenage queen
TTITLE13=I just thought you'd like to know
TTITLE14=Born to lose
TTITLE15=You're the nearest thing to heaven
TTITLE16=The wreck of the old 97
EXTD=ID3G: 2
EXTT0=
EXTT1=
EXTT2=
EXTT3=
EXTT4=
EXTT5=
EXTT6=
EXTT7=
EXTT8=
EXTT9=
EXTT10=
EXTT11=
EXTT12=
EXTT13=
EXTT14=
EXTT15=
EXTT16=
PLAYORDER=
